# xmcd
#
# Track frame offsets:
#	150
#	6572
#	9540
#	22060
#	33280
#	51712
#	60962
#	65115
#	81550
#	95767
#	112335
#	122657
#	134560
#	142307
#	150272
#	161280
#	168902
#	179047
#	198962
#	203582
#	225592
#	258557
#
# Disc length: 4224 seconds
#
# Revision: 1
# Processed by: cddbd v1.5.1PL0 Copyright (c) Steve Scherf et al.
# Submitted via: CDex 1.50Beta5
#
DISCID=45107e16
DTITLE=ハドソン - STARSOLDIER VanishingEarth
DYEAR=1900
DGENRE=Anime
TTITLE0=OPENING
TTITLE1=SELECT
TTITLE2=鳴動
TTITLE3=侵蝕
TTITLE4=襲来
TTITLE5=BOSS
TTITLE6=MISSION CLEAR
TTITLE7=追撃
TTITLE8=戦慄
TTITLE9=牙城
TTITLE10=破壊
TTITLE11=傷跡
TTITLE12=追憶
TTITLE13=CARAVAN MODE 2min
TTITLE14=CARAVAN MODE 5min
TTITLE15=地球
TTITLE16=FINAL BOSS
TTITLE17=ENDING
TTITLE18=GAMEOVER〜NAMEENTRY
TTITLE19=侵蝕
TTITLE20=牙城
TTITLE21=DATA
EXTD=
EXTT0=
EXTT1=
EXTT2=
EXTT3=
EXTT4=
EXTT5=
EXTT6=
EXTT7=
EXTT8=
EXTT9=
EXTT10=
EXTT11=
EXTT12=
EXTT13=
EXTT14=
EXTT15=
EXTT16=
EXTT17=
EXTT18=
EXTT19=
EXTT20=
EXTT21=
PLAYORDER=
